# xmcd
#
# Track frame offsets: 
#        150
#        11760
#        27178
#        45474
#        61074
#        77688
#        92883
#        107838
#        121347
#        133950
#        146785
#        159968
#        174595
#        187438
#
# Disc length: 2686 seconds
#
# Revision: 0
# Processed by: cddbd v1.5.2PL0 Copyright (c) Steve Scherf et al.
# Submitted via: ExactAudioCopy v1.3
#
DISCID=c10a7c0e
DTITLE=ZAYN - Icarus Falls
DYEAR=2018
DGENRE=R&B
TTITLE0=Good Guy
TTITLE1=You Wish You Knew
TTITLE2=Sour Diesel
TTITLE3=Satisfaction
TTITLE4=Scripted
TTITLE5=Entertainer
TTITLE6=All That
TTITLE7=Good Years
TTITLE8=Fresh Air
TTITLE9=Rainberry
TTITLE10=Insomnia
TTITLE11=No Candle No Light Feat. Nicki Minaj
TTITLE12=Fingers
TTITLE13=Too Much Feat. Timbaland
EXTD=
EXTT0=
EXTT1=
EXTT2=
EXTT3=
EXTT4=
EXTT5=
EXTT6=
EXTT7=
EXTT8=
EXTT9=
EXTT10=
EXTT11=
EXTT12=
EXTT13=
PLAYORDER=
